<svg width="913" height="76" viewBox="0 0 913 76" fill="none" xmlns="http://www.w3.org/2000/svg">
<path d="M1.728 21.368L0.768 20.088V19.32H41.344L42.944 29.624H42.176L38.08 25.976C35.2 23.352 30.848 21.688 27.008 21.688H19.84V45.944H22.272C26.048 45.944 30.464 44.152 33.152 41.4L35.008 39.608H35.776V54.712H35.008L33.152 52.856C30.464 50.168 26.048 48.312 22.272 48.312H19.84V72.632H28.608C32.448 72.632 36.8 70.84 39.68 68.344L43.712 64.632H44.544L42.944 75H0.768V74.232L1.728 72.952C4.032 69.816 5.568 65.272 5.568 61.496V32.824C5.568 28.984 4.032 24.376 1.728 21.368ZM94.661 72.44L97.093 74.232V75H71.557V74.232L71.621 73.976C72.773 70.776 72.581 66.616 71.045 63.608L65.157 51.832L58.245 63.928C56.581 66.808 56.069 70.84 57.029 73.976L57.093 74.232V75H44.613V74.232L47.365 72.312C50.501 70.136 53.893 66.552 55.749 63.224L63.877 49.4L54.981 31.416C53.253 27.96 50.053 24.184 47.045 21.816L44.549 20.088V19.32H70.085V20.088L70.021 20.408C68.805 23.544 69.061 27.64 70.597 30.648L76.549 42.616L83.397 30.584C85.061 27.64 85.509 23.544 84.549 20.28L84.485 20.088V19.32H96.965V20.088L94.213 22.008C91.077 24.248 87.749 27.896 85.765 31.16L77.701 45.048L86.725 62.968C88.389 66.424 91.589 70.2 94.661 72.44ZM98.228 21.368L97.268 20.088V19.32H137.844L139.444 29.624H138.676L134.58 25.976C131.7 23.352 127.348 21.688 123.508 21.688H116.34V45.944H118.772C122.548 45.944 126.964 44.152 129.652 41.4L131.508 39.608H132.276V54.712H131.508L129.652 52.856C126.964 50.168 122.548 48.312 118.772 48.312H116.34V72.632H125.108C128.948 72.632 133.3 70.84 136.18 68.344L140.212 64.632H141.044L139.444 75H97.268V74.232L98.228 72.952C100.532 69.816 102.068 65.272 102.068 61.496V32.824C102.068 28.984 100.532 24.376 98.228 21.368ZM143.353 21.368L142.393 20.088V19.32H171.769C183.225 19.32 190.905 24.376 190.905 33.912C190.905 43.192 183.865 48.248 171.897 48.312L183.225 63.544C185.529 66.552 189.177 70.008 192.377 71.992L195.961 74.232V75H168.441V74.232L168.505 73.976C170.233 70.776 170.553 66.296 169.465 62.904L164.665 48.312H161.465V61.496C161.465 65.272 163.001 69.88 165.305 72.952L166.265 74.232V75H142.393V74.232L143.353 72.952C145.657 69.88 147.193 65.272 147.193 61.496V32.824C147.193 28.984 145.657 24.44 143.353 21.368ZM166.201 21.688H161.465V45.944H166.201C171.833 45.944 176.633 41.208 176.633 33.784C176.633 26.488 171.833 21.688 166.201 21.688ZM239.978 56.312H241.578C240.298 69.816 230.186 75.768 219.69 75.768C205.29 75.768 194.154 64.632 194.154 47.16C194.154 29.624 205.29 18.488 221.354 18.488C233.13 18.488 240.234 24.44 241.77 32.504C243.114 39.608 239.338 44.024 234.794 46.008C233.066 46.776 230.826 47.288 228.778 47.288C224.17 47.288 220.394 44.6 224.49 35.832C229.097 25.912 224.938 20.92 220.65 20.92C214.698 20.92 208.49 30.84 208.49 44.984C208.49 58.296 213.866 68.088 224.938 68.088C232.81 68.088 238.506 64.696 239.978 56.312ZM249.774 11.832L254.766 3.448C255.15 2.68 255.79 1.848 256.302 1.272L256.558 1.016C257.07 0.503998 257.646 0.183998 258.222 0.183998C258.606 0.183998 259.054 0.375999 259.438 0.759995L261.806 3.19199C262.83 4.216 262.638 5.30399 261.55 6.392C260.974 6.96799 260.014 7.60799 259.246 8.12L250.926 12.984L249.774 11.832ZM267.118 72.952L268.078 74.232V75H244.206V74.232L245.166 72.952C247.47 69.816 249.006 65.272 249.006 61.496V32.824C249.006 28.984 247.47 24.376 245.166 21.368L244.206 20.088V19.32H268.078V20.088L267.118 21.368C264.814 24.376 263.278 28.984 263.278 32.824V61.496C263.278 65.272 264.814 69.816 267.118 72.952ZM315.915 56.312H317.515C316.235 69.816 306.123 75.768 295.627 75.768C281.227 75.768 270.091 64.632 270.091 47.16C270.091 29.624 281.227 18.488 297.291 18.488C309.067 18.488 316.171 24.44 317.707 32.504C319.051 39.608 315.275 44.024 310.731 46.008C309.003 46.776 306.763 47.288 304.715 47.288C300.107 47.288 296.331 44.6 300.427 35.832C305.035 25.912 300.875 20.92 296.587 20.92C290.635 20.92 284.427 30.84 284.427 44.984C284.427 58.296 289.803 68.088 300.875 68.088C308.747 68.088 314.443 64.696 315.915 56.312ZM341.555 72.952L342.515 74.232V75H318.643V74.232L319.603 72.952C321.907 69.816 323.443 65.272 323.443 61.496V32.824C323.443 28.984 321.907 24.376 319.603 21.368L318.643 20.088V19.32H342.515V20.088L341.555 21.368C339.251 24.376 337.715 28.984 337.715 32.824V61.496C337.715 65.272 339.251 69.816 341.555 72.952ZM343.091 47.16C343.091 29.624 354.227 18.488 370.931 18.488C387.635 18.488 398.771 29.624 398.771 47.16C398.771 64.632 387.635 75.768 370.931 75.768C354.227 75.768 343.091 64.632 343.091 47.16ZM357.427 46.008C357.427 62.008 364.211 73.4 371.251 73.4C378.419 73.4 384.499 61.88 384.499 46.84C384.499 31.096 377.779 20.92 370.611 20.92C363.635 20.92 357.427 30.84 357.427 46.008ZM429.503 65.08C429.503 52.728 403.007 49.08 403.007 33.4C403.007 25.976 409.023 18.488 422.783 18.488C433.343 18.488 438.975 22.904 439.935 28.6C440.767 33.016 438.591 37.496 434.367 39.352C433.215 39.864 431.807 40.184 430.399 40.184C427.135 40.184 424.383 38.136 427.711 31.096C431.295 23.544 428.159 20.92 423.103 20.92C417.599 20.92 414.015 23.864 414.015 27.576C414.015 38.136 442.175 41.848 442.175 59.192C442.175 68.024 434.879 75.768 421.311 75.768C410.175 75.768 403.135 70.392 401.599 62.456C400.511 56.568 403.199 53.304 405.439 51.768C406.975 50.68 409.023 50.104 410.879 50.104C415.039 50.104 418.559 53.112 415.039 60.536C411.135 69.048 415.359 73.4 420.863 73.4C426.047 73.4 429.503 69.496 429.503 65.08ZM480.352 75.896C469.536 75.768 461.984 69.688 460.448 61.56C459.168 54.712 462.816 50.232 467.424 48.248C469.152 47.48 471.328 46.968 473.376 46.968C478.048 46.968 481.888 49.656 477.792 58.424C473.248 68.088 477.024 73.4 480.928 73.4C484.896 73.4 485.664 68.024 485.664 58.424V32.824C485.664 28.984 484.192 24.44 481.824 21.368L480.928 20.088V19.32H504.8V20.088L503.84 21.368C501.536 24.44 500 28.984 500 32.824V54.136C500 66.296 494.048 75.96 480.352 75.896ZM551.977 72.12L554.537 74.232V75H529.641V74.232L529.961 73.464C531.497 70.648 531.625 66.552 530.409 63.544L529.769 61.88H510.633L510.121 63.16C508.777 66.424 508.969 70.776 510.569 73.976L510.697 74.232V75H498.601V74.232L500.777 72.44C503.465 70.136 506.217 66.424 507.625 63.16L525.353 19.32H528.361L545.769 63.544C546.985 66.552 549.545 70.072 551.977 72.12ZM511.593 59.512H528.809L520.297 37.944L511.593 59.512ZM547.597 22.136L545.101 20.088V19.32H569.997V20.088L569.613 20.792C568.077 23.672 567.949 27.704 569.165 30.776L579.213 56.376L589.453 31.16C590.797 27.896 590.605 23.544 589.005 20.344L588.941 20.088V19.32H601.037V20.088L598.797 21.816C596.109 24.184 593.293 27.896 591.949 31.16L574.221 75H571.213L553.805 30.776C552.589 27.704 550.093 24.248 547.597 22.136ZM644.915 72.12L647.475 74.232V75H622.579V74.232L622.899 73.464C624.435 70.648 624.562 66.552 623.347 63.544L622.707 61.88H603.571L603.059 63.16C601.715 66.424 601.907 70.776 603.507 73.976L603.635 74.232V75H591.538V74.232L593.715 72.44C596.403 70.136 599.155 66.424 600.562 63.16L618.291 19.32H621.299L638.707 63.544C639.923 66.552 642.483 70.072 644.915 72.12ZM604.531 59.512H621.747L613.235 37.944L604.531 59.512ZM673.94 65.08C673.94 52.728 647.444 49.08 647.444 33.4C647.444 25.976 653.46 18.488 667.22 18.488C677.78 18.488 683.412 22.904 684.372 28.6C685.204 33.016 683.028 37.496 678.804 39.352C677.652 39.864 676.244 40.184 674.836 40.184C671.572 40.184 668.82 38.136 672.148 31.096C675.732 23.544 672.596 20.92 667.54 20.92C662.036 20.92 658.452 23.864 658.452 27.576C658.452 38.136 686.612 41.848 686.612 59.192C686.612 68.024 679.316 75.768 665.748 75.768C654.612 75.768 647.572 70.392 646.036 62.456C644.948 56.568 647.636 53.304 649.876 51.768C651.412 50.68 653.46 50.104 655.316 50.104C659.476 50.104 662.996 53.112 659.476 60.536C655.572 69.048 659.796 73.4 665.3 73.4C670.484 73.4 673.94 69.496 673.94 65.08ZM734.978 56.312H736.578C735.298 69.816 725.186 75.768 714.69 75.768C700.29 75.768 689.154 64.632 689.154 47.16C689.154 29.624 700.29 18.488 716.354 18.488C728.13 18.488 735.234 24.44 736.77 32.504C738.114 39.608 734.338 44.024 729.794 46.008C728.066 46.776 725.826 47.288 723.778 47.288C719.17 47.288 715.394 44.6 719.49 35.832C724.097 25.912 719.938 20.92 715.65 20.92C709.698 20.92 703.49 30.84 703.49 44.984C703.49 58.296 708.866 68.088 719.938 68.088C727.81 68.088 733.506 64.696 734.978 56.312ZM738.666 21.368L737.706 20.088V19.32H767.082C778.538 19.32 786.218 24.376 786.218 33.912C786.218 43.192 779.178 48.248 767.21 48.312L778.538 63.544C780.842 66.552 784.49 70.008 787.69 71.992L791.274 74.232V75H763.754V74.232L763.818 73.976C765.546 70.776 765.866 66.296 764.778 62.904L759.978 48.312H756.778V61.496C756.778 65.272 758.314 69.88 760.618 72.952L761.578 74.232V75H737.706V74.232L738.666 72.952C740.97 69.88 742.506 65.272 742.506 61.496V32.824C742.506 28.984 740.97 24.44 738.666 21.368ZM761.514 21.688H756.778V45.944H761.514C767.146 45.944 771.946 41.208 771.946 33.784C771.946 26.488 767.146 21.688 761.514 21.688ZM814.493 72.952L815.453 74.232V75H791.581V74.232L792.541 72.952C794.845 69.816 796.381 65.272 796.381 61.496V32.824C796.381 28.984 794.845 24.376 792.541 21.368L791.581 20.088V19.32H815.453V20.088L814.493 21.368C812.189 24.376 810.653 28.984 810.653 32.824V61.496C810.653 65.272 812.189 69.816 814.493 72.952ZM817.978 21.368L817.018 20.088V19.32H846.394C857.85 19.32 865.53 24.376 865.53 33.912C865.53 43.192 858.426 48.312 846.394 48.312H836.09V61.496C836.09 65.272 837.626 69.88 839.93 72.952L840.89 74.232V75H817.018V74.232L817.978 72.952C820.282 69.88 821.818 65.272 821.818 61.496V32.824C821.818 28.984 820.282 24.44 817.978 21.368ZM840.826 21.688H836.09V45.944H840.826C846.458 45.944 851.258 41.208 851.258 33.784C851.258 26.488 846.458 21.688 840.826 21.688ZM869.843 25.976L866.259 29.624H865.363L866.963 19.32H910.739L912.339 29.624H911.507L907.859 25.976C905.235 23.352 901.075 21.688 897.491 21.688H896.019V61.496C896.019 65.272 897.491 69.816 899.795 72.952L900.755 74.232V75H876.883V74.232L877.843 72.952C880.147 69.816 881.683 65.272 881.683 61.496V21.688H880.147C876.499 21.688 872.339 23.416 869.843 25.976Z" fill="#dd9700"/>
</svg>
